<mxfile host="app.diagrams.net" modified="2022-04-13T14:09:38.300Z" agent="5.0 (Windows NT 10.0; Win64; x64) AppleWebKit/537.36 (KHTML, like Gecko) Chrome/100.0.4896.75 Safari/537.36 Edg/100.0.1185.39" etag="Qd3LGVGWDiMyMLlT0sro" version="17.4.3" type="github">
  <diagram id="cjIfti4ttq64oj84X-Ma" name="Page-1">
    <mxGraphModel dx="1422" dy="794" grid="1" gridSize="10" guides="1" tooltips="1" connect="1" arrows="1" fold="1" page="1" pageScale="1" pageWidth="827" pageHeight="1169" math="0" shadow="0">
      <root>
        <mxCell id="0" />
        <mxCell id="1" parent="0" />
        <mxCell id="DW389mNN4FiU-5Pm1X-7-6" value="" style="edgeStyle=orthogonalEdgeStyle;rounded=0;orthogonalLoop=1;jettySize=auto;html=1;fillColor=#dae8fc;strokeColor=#6c8ebf;" parent="1" source="DW389mNN4FiU-5Pm1X-7-1" target="DW389mNN4FiU-5Pm1X-7-5" edge="1">
          <mxGeometry relative="1" as="geometry" />
        </mxCell>
        <mxCell id="DW389mNN4FiU-5Pm1X-7-1" value="Auth" style="rounded=0;whiteSpace=wrap;html=1;fillColor=#dae8fc;strokeColor=#6c8ebf;" parent="1" vertex="1">
          <mxGeometry x="520" y="80" width="40" height="260" as="geometry" />
        </mxCell>
        <mxCell id="DW389mNN4FiU-5Pm1X-7-26" style="edgeStyle=orthogonalEdgeStyle;rounded=0;orthogonalLoop=1;jettySize=auto;html=1;entryX=0;entryY=0.5;entryDx=0;entryDy=0;fillColor=#dae8fc;strokeColor=#6c8ebf;" parent="1" source="DW389mNN4FiU-5Pm1X-7-3" target="DW389mNN4FiU-5Pm1X-7-1" edge="1">
          <mxGeometry relative="1" as="geometry" />
        </mxCell>
        <mxCell id="DW389mNN4FiU-5Pm1X-7-3" value="API&lt;br&gt;Quote /&lt;br&gt;Subscription" style="whiteSpace=wrap;html=1;aspect=fixed;fillColor=#dae8fc;strokeColor=#6c8ebf;" parent="1" vertex="1">
          <mxGeometry x="400" y="170" width="80" height="80" as="geometry" />
        </mxCell>
        <mxCell id="DW389mNN4FiU-5Pm1X-7-5" value="Cardif" style="whiteSpace=wrap;html=1;rounded=0;fillColor=#dae8fc;strokeColor=#6c8ebf;" parent="1" vertex="1">
          <mxGeometry x="590" y="180" width="120" height="60" as="geometry" />
        </mxCell>
        <mxCell id="DW389mNN4FiU-5Pm1X-7-24" value="" style="edgeStyle=orthogonalEdgeStyle;rounded=0;orthogonalLoop=1;jettySize=auto;html=1;fillColor=#dae8fc;strokeColor=#6c8ebf;" parent="1" source="DW389mNN4FiU-5Pm1X-7-19" target="DW389mNN4FiU-5Pm1X-7-1" edge="1">
          <mxGeometry relative="1" as="geometry" />
        </mxCell>
        <mxCell id="DW389mNN4FiU-5Pm1X-7-19" value="API &lt;br&gt;Price" style="whiteSpace=wrap;html=1;aspect=fixed;fillColor=#dae8fc;strokeColor=#6c8ebf;" parent="1" vertex="1">
          <mxGeometry x="400" y="80" width="80" height="80" as="geometry" />
        </mxCell>
        <mxCell id="ABXT4_ojw7Id-GURmyzU-7" value="" style="edgeStyle=orthogonalEdgeStyle;rounded=0;orthogonalLoop=1;jettySize=auto;html=1;fillColor=#f8cecc;strokeColor=#b85450;" edge="1" parent="1" source="DW389mNN4FiU-5Pm1X-7-29" target="DW389mNN4FiU-5Pm1X-7-37">
          <mxGeometry relative="1" as="geometry" />
        </mxCell>
        <mxCell id="DW389mNN4FiU-5Pm1X-7-29" value="Rabbit" style="shape=cylinder3;whiteSpace=wrap;html=1;boundedLbl=1;backgroundOutline=1;size=15;fillColor=#f8cecc;strokeColor=#b85450;" parent="1" vertex="1">
          <mxGeometry x="180" y="260" width="60" height="80" as="geometry" />
        </mxCell>
        <mxCell id="DW389mNN4FiU-5Pm1X-7-41" style="edgeStyle=orthogonalEdgeStyle;rounded=0;orthogonalLoop=1;jettySize=auto;html=1;entryX=0;entryY=0.5;entryDx=0;entryDy=0;entryPerimeter=0;fillColor=#f8cecc;strokeColor=#b85450;" parent="1" source="DW389mNN4FiU-5Pm1X-7-31" target="DW389mNN4FiU-5Pm1X-7-29" edge="1">
          <mxGeometry relative="1" as="geometry" />
        </mxCell>
        <mxCell id="DW389mNN4FiU-5Pm1X-7-31" value="API Quote/&lt;br&gt;Subscription" style="whiteSpace=wrap;html=1;aspect=fixed;fillColor=#f8cecc;strokeColor=#b85450;" parent="1" vertex="1">
          <mxGeometry x="60" y="260" width="80" height="80" as="geometry" />
        </mxCell>
        <mxCell id="DW389mNN4FiU-5Pm1X-7-35" style="edgeStyle=orthogonalEdgeStyle;rounded=0;orthogonalLoop=1;jettySize=auto;html=1;entryX=0;entryY=0.5;entryDx=0;entryDy=0;fillColor=#dae8fc;strokeColor=#6c8ebf;" parent="1" source="DW389mNN4FiU-5Pm1X-7-34" target="DW389mNN4FiU-5Pm1X-7-1" edge="1">
          <mxGeometry relative="1" as="geometry" />
        </mxCell>
        <mxCell id="DW389mNN4FiU-5Pm1X-7-34" value="API&lt;br&gt;Subscription" style="whiteSpace=wrap;html=1;aspect=fixed;fillColor=#f8cecc;strokeColor=#b85450;" parent="1" vertex="1">
          <mxGeometry x="400" y="260" width="80" height="80" as="geometry" />
        </mxCell>
        <mxCell id="DW389mNN4FiU-5Pm1X-7-38" style="edgeStyle=orthogonalEdgeStyle;rounded=0;orthogonalLoop=1;jettySize=auto;html=1;entryX=0;entryY=0.5;entryDx=0;entryDy=0;" parent="1" source="DW389mNN4FiU-5Pm1X-7-37" target="DW389mNN4FiU-5Pm1X-7-34" edge="1">
          <mxGeometry relative="1" as="geometry" />
        </mxCell>
        <mxCell id="DW389mNN4FiU-5Pm1X-7-37" value="Worker Subscription" style="whiteSpace=wrap;html=1;aspect=fixed;fillColor=#f8cecc;strokeColor=#b85450;" parent="1" vertex="1">
          <mxGeometry x="280" y="260" width="80" height="80" as="geometry" />
        </mxCell>
        <mxCell id="DW389mNN4FiU-5Pm1X-7-44" style="edgeStyle=orthogonalEdgeStyle;rounded=0;orthogonalLoop=1;jettySize=auto;html=1;entryX=0;entryY=0.5;entryDx=0;entryDy=0;entryPerimeter=0;fillColor=#e1d5e7;strokeColor=#9673a6;" parent="1" source="DW389mNN4FiU-5Pm1X-7-42" target="DW389mNN4FiU-5Pm1X-7-43" edge="1">
          <mxGeometry relative="1" as="geometry" />
        </mxCell>
        <mxCell id="DW389mNN4FiU-5Pm1X-7-42" value="Webhook&lt;br&gt;Subscription" style="whiteSpace=wrap;html=1;aspect=fixed;fillColor=#e1d5e7;strokeColor=#9673a6;" parent="1" vertex="1">
          <mxGeometry x="200" y="400" width="80" height="80" as="geometry" />
        </mxCell>
        <mxCell id="DW389mNN4FiU-5Pm1X-7-47" style="edgeStyle=orthogonalEdgeStyle;rounded=0;orthogonalLoop=1;jettySize=auto;html=1;entryX=0;entryY=0.5;entryDx=0;entryDy=0;" parent="1" source="DW389mNN4FiU-5Pm1X-7-43" target="DW389mNN4FiU-5Pm1X-7-46" edge="1">
          <mxGeometry relative="1" as="geometry" />
        </mxCell>
        <mxCell id="DW389mNN4FiU-5Pm1X-7-43" value="Rabbit" style="shape=cylinder3;whiteSpace=wrap;html=1;boundedLbl=1;backgroundOutline=1;size=15;fillColor=#e1d5e7;strokeColor=#9673a6;" parent="1" vertex="1">
          <mxGeometry x="310" y="400" width="60" height="80" as="geometry" />
        </mxCell>
        <mxCell id="DW389mNN4FiU-5Pm1X-7-49" style="edgeStyle=orthogonalEdgeStyle;rounded=0;orthogonalLoop=1;jettySize=auto;html=1;entryX=0.5;entryY=0;entryDx=0;entryDy=0;entryPerimeter=0;" parent="1" source="DW389mNN4FiU-5Pm1X-7-46" target="DW389mNN4FiU-5Pm1X-7-48" edge="1">
          <mxGeometry relative="1" as="geometry" />
        </mxCell>
        <mxCell id="DW389mNN4FiU-5Pm1X-7-46" value="API&lt;br&gt;Subscription&lt;br&gt;Notification" style="whiteSpace=wrap;html=1;aspect=fixed;fillColor=#dae8fc;strokeColor=#6c8ebf;" parent="1" vertex="1">
          <mxGeometry x="400" y="400" width="80" height="80" as="geometry" />
        </mxCell>
        <mxCell id="DW389mNN4FiU-5Pm1X-7-48" value="SQL" style="shape=cylinder3;whiteSpace=wrap;html=1;boundedLbl=1;backgroundOutline=1;size=15;fillColor=#fff2cc;strokeColor=#d6b656;" parent="1" vertex="1">
          <mxGeometry x="410" y="520" width="60" height="80" as="geometry" />
        </mxCell>
        <mxCell id="ABXT4_ojw7Id-GURmyzU-2" style="edgeStyle=orthogonalEdgeStyle;rounded=0;orthogonalLoop=1;jettySize=auto;html=1;entryX=0;entryY=0.5;entryDx=0;entryDy=0;" edge="1" parent="1" source="ABXT4_ojw7Id-GURmyzU-1" target="DW389mNN4FiU-5Pm1X-7-19">
          <mxGeometry relative="1" as="geometry" />
        </mxCell>
        <mxCell id="ABXT4_ojw7Id-GURmyzU-5" style="edgeStyle=orthogonalEdgeStyle;rounded=0;orthogonalLoop=1;jettySize=auto;html=1;entryX=0;entryY=0.5;entryDx=0;entryDy=0;" edge="1" parent="1" source="ABXT4_ojw7Id-GURmyzU-1" target="DW389mNN4FiU-5Pm1X-7-3">
          <mxGeometry relative="1" as="geometry">
            <Array as="points">
              <mxPoint x="80" y="210" />
            </Array>
          </mxGeometry>
        </mxCell>
        <mxCell id="ABXT4_ojw7Id-GURmyzU-1" value="Actor" style="shape=umlActor;verticalLabelPosition=bottom;verticalAlign=top;html=1;outlineConnect=0;" vertex="1" parent="1">
          <mxGeometry x="65" y="90" width="30" height="60" as="geometry" />
        </mxCell>
      </root>
    </mxGraphModel>
  </diagram>
</mxfile>
